<?xml version="1.0" encoding="UTF-8" standalone="no"?>
<!-- Created with Inkscape (http://www.inkscape.org/) -->

<svg
   xmlns:dc="http://purl.org/dc/elements/1.1/"
   xmlns:cc="http://creativecommons.org/ns#"
   xmlns:rdf="http://www.w3.org/1999/02/22-rdf-syntax-ns#"
   xmlns:svg="http://www.w3.org/2000/svg"
   xmlns="http://www.w3.org/2000/svg"
   xmlns:sodipodi="http://sodipodi.sourceforge.net/DTD/sodipodi-0.dtd"
   xmlns:inkscape="http://www.inkscape.org/namespaces/inkscape"
   width="210mm"
   height="297mm"
   viewBox="0 0 210 297"
   version="1.1"
   id="svg1160"
   inkscape:version="0.92.4 (5da689c313, 2019-01-14)">
  <defs
     id="defs1154" />
  <sodipodi:namedview
     id="base"
     pagecolor="#ffffff"
     bordercolor="#666666"
     borderopacity="1.0"
     inkscape:pageopacity="0.0"
     inkscape:pageshadow="2"
     inkscape:zoom="0.49497475"
     inkscape:cx="285.14213"
     inkscape:cy="640.8122"
     inkscape:document-units="mm"
     inkscape:current-layer="layer1"
     showgrid="false"
     inkscape:window-width="1366"
     inkscape:window-height="705"
     inkscape:window-x="-8"
     inkscape:window-y="-8"
     inkscape:window-maximized="1" />
  <metadata
     id="metadata1157">
    <rdf:RDF>
      <cc:Work
         rdf:about="">
        <dc:format>image/svg+xml</dc:format>
        <dc:type
           rdf:resource="http://purl.org/dc/dcmitype/StillImage" />
        <dc:title></dc:title>
      </cc:Work>
    </rdf:RDF>
  </metadata>
  <g
     inkscape:label="Calque 1"
     inkscape:groupmode="layer"
     id="layer1">
    <path
       inkscape:connector-curvature="0"
       id="path14"
       style="fill:#211c1d;fill-opacity:1;fill-rule:nonzero;stroke:none;stroke-width:0.09711997"
       d="M 131.04314,221.26178 H 89.722484 c -0.54873,0 -1.089695,-0.12059 -1.58598,-0.35255 -18.359555,-8.61843 -30.220803,-27.25185 -30.220803,-47.46834 0,-20.58555 11.844757,-38.98979 30.390774,-47.5849 V 76.519052 c 0,-2.058947 1.671433,-3.729416 3.732306,-3.729416 h 36.688059 c 2.06087,0 3.7323,1.670469 3.7323,3.729416 v 9.789692 c 0,2.068637 -1.67143,3.739107 -3.7323,3.739107 -2.0609,0 -3.73234,-1.67047 -3.73234,-3.739107 V 80.24844 H 95.771115 v 48.05497 c 0,1.52478 -0.918761,2.88447 -2.326015,3.45748 -17.047472,6.94407 -28.064758,23.29905 -28.064758,41.68 0,17.06396 9.861546,32.81587 25.19194,40.35721 h 39.621058 c 15.32943,-7.54134 25.19097,-23.29325 25.19097,-40.35721 0,-18.38095 -11.01632,-34.73593 -28.06376,-41.68 -1.40729,-0.57301 -2.32605,-1.9327 -2.32605,-3.45748 v -27.89286 c 0,-2.058942 1.67144,-3.729412 3.73234,-3.729412 2.06087,0 3.7323,1.67047 3.7323,3.729412 v 25.44544 c 18.54605,8.59511 30.38981,26.99935 30.38981,47.5849 0,20.21649 -11.86124,38.84991 -30.22083,47.46834 -0.49625,0.23207 -1.03722,0.35255 -1.58498,0.35255" />
    <path
       inkscape:connector-curvature="0"
       id="path16"
       style="fill:#800080;fill-opacity:1;fill-rule:nonzero;stroke:none;stroke-width:0.09711997"
       d="m 71.574635,161.47084 c -1.168349,3.80711 -1.787968,7.83176 -1.787968,11.97005 0,15.05746 8.516454,28.98253 21.839356,35.95088 h 37.512607 c 13.32194,-6.96835 21.83936,-20.89342 21.83936,-35.95088 0,-4.13829 -0.62061,-8.16294 -1.78896,-11.97005 H 71.574635" />
    <path
       inkscape:connector-curvature="0"
       id="path18"
       style="fill:#ffffff;fill-opacity:1;fill-rule:nonzero;stroke:none;stroke-width:0.09711997"
       d="m 96.262527,178.99032 c 0,5.51545 -4.471379,9.98683 -9.986835,9.98683 -5.515429,0 -9.986836,-4.47138 -9.986836,-9.98683 0,-5.51543 4.471407,-9.98684 9.986836,-9.98684 5.515456,0 9.986835,4.47141 9.986835,9.98684" />
    <path
       inkscape:connector-curvature="0"
       id="path20"
       style="fill:#800080;fill-opacity:1;fill-rule:nonzero;stroke:none;stroke-width:0.09711997"
       d="m 127.68766,149.95144 c 0,3.57403 -2.89614,6.46626 -6.46918,6.46626 -3.57205,0 -6.46915,-2.89223 -6.46915,-6.46626 0,-3.57401 2.8971,-6.46819 6.46915,-6.46819 3.57304,0 6.46918,2.89418 6.46918,6.46819" />
    <path
       inkscape:connector-curvature="0"
       id="path22"
       style="fill:#800080;fill-opacity:1;fill-rule:nonzero;stroke:none;stroke-width:0.09711997"
       d="m 110.4741,135.4223 c 0,2.08808 -1.69376,3.77796 -3.78283,3.77796 -2.08903,0 -3.78282,-1.68988 -3.78282,-3.77796 0,-2.08807 1.69379,-3.78766 3.78282,-3.78766 2.08907,0 3.78283,1.69959 3.78283,3.78766" />
  </g>
</svg>
