<?xml version="1.0" encoding="UTF-8" standalone="no"?>
<svg
   xmlns:dc="http://purl.org/dc/elements/1.1/"
   xmlns:cc="http://creativecommons.org/ns#"
   xmlns:rdf="http://www.w3.org/1999/02/22-rdf-syntax-ns#"
   xmlns:svg="http://www.w3.org/2000/svg"
   xmlns="http://www.w3.org/2000/svg"
   xmlns:sodipodi="http://sodipodi.sourceforge.net/DTD/sodipodi-0.dtd"
   xmlns:inkscape="http://www.inkscape.org/namespaces/inkscape"
   sodipodi:docname="fernlogov2.svg"
   inkscape:version="1.0 (4035a4fb49, 2020-05-01)"
   id="svg1121"
   version="1.1"
   viewBox="0 0 100 100"
   height="100mm"
   width="100mm">
  <defs
     id="defs1115" />
  <sodipodi:namedview
     inkscape:pagecheckerboard="false"
     inkscape:document-rotation="0"
     inkscape:window-maximized="1"
     inkscape:window-y="-8"
     inkscape:window-x="-8"
     inkscape:window-height="705"
     inkscape:window-width="1366"
     showgrid="false"
     inkscape:current-layer="layer1"
     inkscape:document-units="mm"
     inkscape:cy="184.0785"
     inkscape:cx="123.73351"
     inkscape:zoom="1.4"
     inkscape:pageshadow="2"
     inkscape:pageopacity="0.0"
     borderopacity="1.0"
     bordercolor="#666666"
     pagecolor="#ffffff"
     id="base" />
  <metadata
     id="metadata1118">
    <rdf:RDF>
      <cc:Work
         rdf:about="">
        <dc:format>image/svg+xml</dc:format>
        <dc:type
           rdf:resource="http://purl.org/dc/dcmitype/StillImage" />
        <dc:title></dc:title>
      </cc:Work>
    </rdf:RDF>
  </metadata>
  <g
     transform="translate(0,-197)"
     id="layer1"
     inkscape:groupmode="layer"
     inkscape:label="Calque 1">
    <text
       id="text162"
       style="font-variant:normal;font-weight:900;font-size:6.81831px;font-family:NexaRustSans;-inkscape-font-specification:NexaRustSans-Black;writing-mode:lr-tb;fill:#6fc42e;fill-opacity:1;fill-rule:nonzero;stroke:none;stroke-width:0.352778"
       x="23.777929"
       y="279.06537"><tspan
         y="279.06537"
         x="23.777929"
         id="tspan160"
         sodipodi:role="line"
         style="font-size:9.87778px;stroke-width:0.352778">FERN</tspan></text>
    <g
       transform="matrix(0.35277777,0,0,-0.35277777,-72.034603,294.26699)"
       id="g164">
      <text
         y="-42.555573"
         x="353.3653"
         id="text168"
         style="font-variant:normal;font-weight:900;font-size:19.3275px;font-family:NexaRustSans;-inkscape-font-specification:NexaRustSans-Black;writing-mode:lr-tb;fill:#569436;fill-opacity:1;fill-rule:nonzero;stroke:none"
         transform="scale(1,-1)"><tspan
           style="font-size:30px"
           y="-42.555573"
           x="353.3653"
           id="tspan166"
           sodipodi:role="line">LAB</tspan></text>
    </g>
    <g
       transform="matrix(0.35277777,0,0,-0.35277777,-83.373889,302.01551)"
       id="g170">
      <text
         transform="scale(0.86037227,-1.1622876)"
         id="text1767"
         y="-37.582321"
         x="314.25305"
         style="font-style:normal;font-weight:normal;font-size:25.8112px;line-height:1.25;font-family:sans-serif;letter-spacing:0px;word-spacing:0px;fill:#707e77;fill-opacity:1;stroke:none;stroke-width:0.645279"
         xml:space="preserve"><tspan
           style="font-style:normal;font-variant:normal;font-weight:bold;font-stretch:normal;font-size:10.3245px;font-family:Aleo;-inkscape-font-specification:'Aleo Bold';fill:#707e77;fill-opacity:1;stroke-width:0.645279"
           y="-37.582321"
           x="314.25305"
           id="tspan1765"
           sodipodi:role="line">Facilities for Exploratory Research on Nutrition</tspan></text>
    </g>
    <g
       transform="matrix(1.6691589,0,0,1.6691589,-33.557615,-154.08477)"
       id="g5212">
      <path
         d="m 47.582212,223.48934 c -0.391583,0.68086 -0.420511,1.54552 0,2.27507 0.421217,0.72919 1.184981,1.13629 1.969911,1.137 0.392289,-0.68016 0.421569,-1.54552 3.44e-4,-2.27471 -0.420511,-0.72884 -1.184275,-1.13665 -1.970264,-1.13736"
         style="fill:#6fc42e;fill-opacity:1;fill-rule:nonzero;stroke:none;stroke-width:0.03527778"
         id="path176"
         inkscape:connector-curvature="0" />
      <path
         d="m 44.146862,229.44141 c 0.392642,0.6798 1.127478,1.13665 1.969206,1.13665 0.842786,0.001 1.576916,-0.4572 1.969911,-1.13665 -0.392289,-0.6798 -1.127125,-1.13771 -1.969911,-1.13771 -0.841728,0 -1.576564,0.45791 -1.969206,1.13771"
         style="fill:#6fc42e;fill-opacity:1;fill-rule:nonzero;stroke:none;stroke-width:0.03527778"
         id="path178"
         inkscape:connector-curvature="0" />
      <path
         d="m 47.58327,235.39242 c 0.784931,0 1.548695,-0.40852 1.968853,-1.13701 0.422275,-0.72848 0.392289,-1.59455 3.44e-4,-2.27365 -0.78493,-0.001 -1.548694,0.4064 -1.970264,1.13559 -0.420511,0.7299 -0.391583,1.59526 0.0011,2.27507"
         style="fill:#6fc42e;fill-opacity:1;fill-rule:nonzero;stroke:none;stroke-width:0.03527778"
         id="path180"
         inkscape:connector-curvature="0" />
      <path
         d="m 54.455028,235.39171 c 0.391937,-0.6791 0.420512,-1.54516 0,-2.2733 -0.420863,-0.73025 -1.185333,-1.13665 -1.969205,-1.13665 -0.393347,0.6791 -0.422275,1.54411 -0.0011,2.27365 0.420863,0.72884 1.184627,1.13701 1.970263,1.1363"
         style="fill:#6fc42e;fill-opacity:1;fill-rule:nonzero;stroke:none;stroke-width:0.03527778"
         id="path182"
         inkscape:connector-curvature="0" />
      <path
         d="m 57.890025,229.4407 c -0.391936,-0.67909 -1.12783,-1.137 -1.968499,-1.13629 -0.842786,-10e-4 -1.577623,0.45755 -1.969206,1.137 0.390878,0.6798 1.125714,1.137 1.968147,1.137 0.842786,7.2e-4 1.577622,-0.4572 1.969558,-1.13771"
         style="fill:#6fc42e;fill-opacity:1;fill-rule:nonzero;stroke:none;stroke-width:0.03527778"
         id="path184"
         inkscape:connector-curvature="0" />
      <path
         d="m 54.45397,223.49005 c -0.784578,0 -1.549047,0.40851 -1.968147,1.13665 -0.422981,0.72919 -0.392289,1.59561 0,2.27436 0.784225,7.1e-4 1.548342,-0.40676 1.969558,-1.13595 0.420511,-0.7299 0.391584,-1.59491 -0.0014,-2.27506"
         style="fill:#6fc42e;fill-opacity:1;fill-rule:nonzero;stroke:none;stroke-width:0.03527778"
         id="path186"
         inkscape:connector-curvature="0" />
      <path
         d="m 51.020031,246.80376 c 2.149475,-1.24464 3.596922,-3.56768 3.597275,-6.23045 0,-2.66312 -1.4478,-4.98651 -3.597275,-6.23111 -2.150533,1.24424 -3.59798,3.56799 -3.59798,6.23076 0,2.66277 1.4478,4.98545 3.59798,6.2308"
         style="fill:#ffffff;fill-opacity:1;fill-rule:nonzero;stroke:none;stroke-width:0.03527778"
         id="path188"
         inkscape:connector-curvature="0" />
      <path
         d="m 51.01862,212.07804 c -2.15018,1.24425 -3.597627,3.56729 -3.597627,6.23006 0,2.66311 1.447447,4.98651 3.597627,6.23076 2.149828,-1.24425 3.597628,-3.56765 3.597628,-6.23076 0,-2.66277 -1.4478,-4.98581 -3.597628,-6.23006"
         style="fill:#569436;fill-opacity:1;fill-rule:nonzero;stroke:none;stroke-width:0.03527778"
         id="path190"
         inkscape:connector-curvature="0" />
      <path
         d="m 35.981821,220.75955 c 0.0028,2.48426 1.291166,4.89938 3.596922,6.23076 2.306461,1.33174 5.042252,1.23966 7.194902,0 -0.0021,-2.48461 -1.291166,-4.89938 -3.596922,-6.23111 -2.306108,-1.33139 -5.041547,-1.23931 -7.194902,3.4e-4"
         style="fill:#569436;fill-opacity:1;fill-rule:nonzero;stroke:none;stroke-width:0.03527778"
         id="path192"
         inkscape:connector-curvature="0" />
      <path
         d="m 35.982879,238.12292 c 2.152297,1.23966 4.887736,1.33103 7.194197,3.4e-4 2.306108,-1.33138 3.594453,-3.7472 3.597275,-6.23111 -2.152297,-1.24037 -4.888794,-1.33174 -7.19455,-3.5e-4 -2.306108,1.33103 -3.5941,3.74615 -3.596922,6.23112"
         style="fill:#569436;fill-opacity:1;fill-rule:nonzero;stroke:none;stroke-width:0.03527778"
         id="path194"
         inkscape:connector-curvature="0" />
      <path
         d="m 66.056831,238.12151 c -0.0032,-2.48391 -1.291873,-4.89938 -3.597275,-6.23076 -2.30646,-1.33139 -5.042252,-1.23931 -7.19455,0 0.0018,2.48461 1.290814,4.89973 3.596923,6.23111 2.305754,1.33138 5.040487,1.23931 7.194902,-3.5e-4"
         style="fill:#569436;fill-opacity:1;fill-rule:nonzero;stroke:none;stroke-width:0.03527778"
         id="path196"
         inkscape:connector-curvature="0" />
      <path
         d="m 66.056125,220.75814 c -2.153002,-1.23931 -4.889146,-1.33103 -7.195254,-3.5e-4 -2.305757,1.33174 -3.593748,3.74721 -3.597276,6.23112 2.153003,1.24072 4.888443,1.33173 7.194551,3.4e-4 2.30646,-1.33103 3.593745,-3.74579 3.597979,-6.23111"
         style="fill:#569436;fill-opacity:1;fill-rule:nonzero;stroke:none;stroke-width:0.03527778"
         id="path198"
         inkscape:connector-curvature="0" />
      <path
         d="m 42.336759,214.40426 c -0.619477,1.07632 -0.665338,2.44369 0,3.59657 0.666045,1.15323 1.873603,1.7981 3.115381,1.79916 0.61983,-1.07632 0.666044,-2.44439 0,-3.59762 -0.665339,-1.15288 -1.872897,-1.79706 -3.115381,-1.79811"
         style="fill:#6fc42e;fill-opacity:1;fill-rule:nonzero;stroke:none;stroke-width:0.03527778"
         id="path200"
         inkscape:connector-curvature="0" />
      <path
         d="m 33.655251,229.44141 c 0.622653,1.07491 1.783997,1.79846 3.115381,1.79846 1.331383,0 2.493433,-0.72355 3.115733,-1.79846 -0.6223,-1.07527 -1.78435,-1.79917 -3.115733,-1.79881 -1.331031,0 -2.492728,0.72354 -3.115381,1.79881"
         style="fill:#6fc42e;fill-opacity:1;fill-rule:nonzero;stroke:none;stroke-width:0.03527778"
         id="path202"
         inkscape:connector-curvature="0" />
      <path
         d="m 42.337112,244.47892 c 1.242131,-0.002 2.449336,-0.64594 3.115028,-1.79882 0.665691,-1.15393 0.620536,-2.5213 7.14e-4,-3.59763 -1.24213,8e-4 -2.450747,0.64559 -3.116086,1.79882 -0.665338,1.15252 -0.619477,2.52095 3.44e-4,3.59763"
         style="fill:#6fc42e;fill-opacity:1;fill-rule:nonzero;stroke:none;stroke-width:0.03527778"
         id="path204"
         inkscape:connector-curvature="0" />
      <path
         d="m 59.700833,244.47856 c 0.619831,-1.07632 0.665692,-2.44369 0,-3.59727 -0.666395,-1.15323 -1.873602,-1.79811 -3.11538,-1.79917 -0.620536,1.07597 -0.666397,2.4451 3.44e-4,3.59798 0.664986,1.15253 1.872899,1.79705 3.115028,1.79846"
         style="fill:#6fc42e;fill-opacity:1;fill-rule:nonzero;stroke:none;stroke-width:0.03527778"
         id="path206"
         inkscape:connector-curvature="0" />
      <path
         d="m 68.382341,229.4407 c -0.621593,-1.07491 -1.782937,-1.7981 -3.115378,-1.7981 -1.33209,0 -2.493434,0.72284 -3.115734,1.7981 0.621594,1.07527 1.78435,1.79988 3.116437,1.79917 1.330325,0 2.493082,-0.7239 3.114675,-1.79917"
         style="fill:#6fc42e;fill-opacity:1;fill-rule:nonzero;stroke:none;stroke-width:0.03527778"
         id="path208"
         inkscape:connector-curvature="0" />
      <path
         d="m 59.700129,214.4032 c -1.241425,0.002 -2.448983,0.64558 -3.114323,1.79917 -0.666397,1.15393 -0.621594,2.52094 -0.0014,3.59727 1.242483,0 2.4511,-0.64523 3.116792,-1.79917 0.664985,-1.15182 0.619476,-2.52059 -0.0011,-3.59727"
         style="fill:#6fc42e;fill-opacity:1;fill-rule:nonzero;stroke:none;stroke-width:0.03527778"
         id="path210"
         inkscape:connector-curvature="0" />
      <path
         d="m 45.592193,253.02986 c -0.323498,0 -0.585964,-0.2625 -0.585964,-0.58593 0,-0.32357 0.262466,-0.58593 0.585964,-0.58593 1.529997,0 2.774244,-1.24492 2.774244,-2.77428 v -11.81241 c 0,-0.3235 0.262467,-0.58596 0.585964,-0.58596 0.323497,0 0.585964,0.26246 0.585964,0.58596 v 11.81241 c 0,2.17551 -1.769886,3.94614 -3.946172,3.94614"
         style="fill:#569436;fill-opacity:1;fill-rule:nonzero;stroke:none;stroke-width:0.03527778"
         id="path212"
         inkscape:connector-curvature="0" />
      <path
         d="m 56.445401,253.02986 c -2.175934,0 -3.946172,-1.77063 -3.946172,-3.94614 v -11.81241 c 0,-0.3235 0.262466,-0.58596 0.585963,-0.58596 0.323498,0 0.585964,0.26246 0.585964,0.58596 v 11.81241 c 0,1.52936 1.2446,2.77428 2.774245,2.77428 0.323497,0 0.586316,0.26236 0.586316,0.58593 0,0.32343 -0.262819,0.58593 -0.586316,0.58593"
         style="fill:#569436;fill-opacity:1;fill-rule:nonzero;stroke:none;stroke-width:0.03527778"
         id="path214"
         inkscape:connector-curvature="0" />
      <path
         d="m 51.018973,253.02986 c -0.323497,0 -0.585964,-0.2625 -0.585964,-0.58593 v -15.17297 c 0,-0.3235 0.262467,-0.58597 0.585964,-0.58597 0.323497,0 0.585964,0.26247 0.585964,0.58597 v 15.17297 c 0,0.32343 -0.262467,0.58593 -0.585964,0.58593"
         style="fill:#569436;fill-opacity:1;fill-rule:nonzero;stroke:none;stroke-width:0.03527778"
         id="path216"
         inkscape:connector-curvature="0" />
    </g>
  </g>
</svg>
