<?xml version="1.0" encoding="UTF-8" standalone="no"?>
<svg
   xmlns:dc="http://purl.org/dc/elements/1.1/"
   xmlns:cc="http://creativecommons.org/ns#"
   xmlns:rdf="http://www.w3.org/1999/02/22-rdf-syntax-ns#"
   xmlns:svg="http://www.w3.org/2000/svg"
   xmlns="http://www.w3.org/2000/svg"
   xmlns:sodipodi="http://sodipodi.sourceforge.net/DTD/sodipodi-0.dtd"
   xmlns:inkscape="http://www.inkscape.org/namespaces/inkscape"
   inkscape:version="1.0 (4035a4fb49, 2020-05-01)"
   sodipodi:docname="home.svg"
   viewBox="0 0 1000 666.66669"
   height="666.66669"
   width="1000"
   xml:space="preserve"
   id="svg2"
   version="1.1"><metadata
     id="metadata8"><rdf:RDF><cc:Work
         rdf:about=""><dc:format>image/svg+xml</dc:format><dc:type
           rdf:resource="http://purl.org/dc/dcmitype/StillImage" /><dc:title /></cc:Work></rdf:RDF></metadata><defs
     id="defs6"><clipPath
       id="clipPath22"
       clipPathUnits="userSpaceOnUse"><path
         inkscape:connector-curvature="0"
         id="path20"
         d="M 790,510 H 6770 V 4390 H 790 Z" /></clipPath></defs><sodipodi:namedview
     inkscape:document-rotation="0"
     inkscape:current-layer="g10"
     inkscape:window-maximized="1"
     inkscape:window-y="-8"
     inkscape:window-x="-8"
     inkscape:cy="255.99047"
     inkscape:cx="450.56497"
     inkscape:zoom="1.0012632"
     showgrid="false"
     id="namedview4"
     inkscape:window-height="705"
     inkscape:window-width="1366"
     inkscape:pageshadow="2"
     inkscape:pageopacity="0"
     guidetolerance="10"
     gridtolerance="10"
     objecttolerance="10"
     borderopacity="1"
     bordercolor="#666666"
     pagecolor="#ffffff" /><g
     transform="matrix(1.3333333,0,0,-1.3333333,0,666.66667)"
     inkscape:label="ink_ext_XXXXXX"
     inkscape:groupmode="layer"
     id="g10"><g
       transform="matrix(1.5196506,0,0,1.5196506,-271.23935,-92.390671)"
       id="g1351"><path
         inkscape:connector-curvature="0"
         id="path82"
         style="fill:#c7e7f6;fill-opacity:1;fill-rule:nonzero;stroke:none;stroke-width:0.1"
         d="M 662.1,376 V 80.1898 C 662.1,72 655.46,65.3602 647.27,65.3602 H 265 C 240,201 353.03,218.96 427.5,245.5 c 39.75,14.17 43.94,45.44 83.92,96.88 C 568.57,415.89 662.1,376 662.1,376" /><path
         inkscape:connector-curvature="0"
         id="path84"
         style="fill:#c7e7f6;fill-opacity:1;fill-rule:nonzero;stroke:none;stroke-width:0.1"
         d="m 477.773,308.5 c 0,0 -12.232,-33.903 -41.332,-49.235 -22.875,-12.053 -46.744,-11.744 -61.441,-2.794 -17.839,10.862 -13.801,40.445 11.153,42.445 24.954,2 49.75,-3.416 64.549,16.584 14.798,20 32.581,12.333 27.071,-7" /><path
         inkscape:connector-curvature="0"
         id="path86"
         style="fill:#319aa9;fill-opacity:1;fill-rule:nonzero;stroke:none;stroke-width:0.1"
         d="M 662.1,93 V 84.3301 H 262.32 c -0.29,2.95 -0.5,5.8398 -0.65,8.6699 H 662.1" /><path
         inkscape:connector-curvature="0"
         id="path88"
         style="fill:#46aaba;fill-opacity:1;fill-rule:nonzero;stroke:none;stroke-width:0.1"
         d="M 662.1,161 V 93 H 261.67 c -1.4,28.16 4.18,50.28 14.42,68 H 662.1" /><path
         inkscape:connector-curvature="0"
         id="path90"
         style="fill:#6cc1ca;fill-opacity:1;fill-rule:nonzero;stroke:none;stroke-width:0.1"
         d="m 495.075,111.03 v 0 c -2.502,0 -4.53,2.028 -4.53,4.53 v 32.474 h 9.059 V 115.56 c 0,-2.502 -2.028,-4.53 -4.529,-4.53" /><path
         inkscape:connector-curvature="0"
         id="path92"
         style="fill:#6cc1ca;fill-opacity:1;fill-rule:nonzero;stroke:none;stroke-width:0.1"
         d="m 499.983,145.75 h -9.962 c -0.63,0 -1.142,0.512 -1.142,1.142 0,0.631 0.512,1.142 1.142,1.142 h 9.962 c 0.631,0 1.142,-0.511 1.142,-1.142 0,-0.63 -0.511,-1.142 -1.142,-1.142" /><path
         inkscape:connector-curvature="0"
         id="path94"
         style="fill:#6cc1ca;fill-opacity:1;fill-rule:nonzero;stroke:none;stroke-width:0.1"
         d="m 499.604,144.523 h -9.059 v 1.227 h 9.059 v -1.227" /><path
         inkscape:connector-curvature="0"
         id="path96"
         style="fill:#6cc1ca;fill-opacity:1;fill-rule:nonzero;stroke:none;stroke-width:0.1"
         d="m 512.493,111.03 v 0 c -2.501,0 -4.529,2.028 -4.529,4.53 v 32.474 h 9.058 V 115.56 c 0,-2.502 -2.027,-4.53 -4.529,-4.53" /><path
         inkscape:connector-curvature="0"
         id="path98"
         style="fill:#6cc1ca;fill-opacity:1;fill-rule:nonzero;stroke:none;stroke-width:0.1"
         d="m 517.401,145.75 h -9.961 c -0.631,0 -1.142,0.512 -1.142,1.142 0,0.631 0.511,1.142 1.142,1.142 h 9.961 c 0.631,0 1.142,-0.511 1.142,-1.142 0,-0.63 -0.511,-1.142 -1.142,-1.142" /><path
         inkscape:connector-curvature="0"
         id="path100"
         style="fill:#6cc1ca;fill-opacity:1;fill-rule:nonzero;stroke:none;stroke-width:0.1"
         d="m 517.022,144.523 h -9.058 v 1.227 h 9.058 v -1.227" /><path
         inkscape:connector-curvature="0"
         id="path102"
         style="fill:#6cc1ca;fill-opacity:1;fill-rule:nonzero;stroke:none;stroke-width:0.1"
         d="m 529.911,111.03 v 0 c -2.501,0 -4.529,2.028 -4.529,4.53 v 32.474 h 9.059 V 115.56 c 0,-2.502 -2.028,-4.53 -4.53,-4.53" /><path
         inkscape:connector-curvature="0"
         id="path104"
         style="fill:#6cc1ca;fill-opacity:1;fill-rule:nonzero;stroke:none;stroke-width:0.1"
         d="m 534.82,145.75 h -9.962 c -0.63,0 -1.142,0.512 -1.142,1.142 0,0.631 0.512,1.142 1.142,1.142 h 9.962 c 0.63,0 1.142,-0.511 1.142,-1.142 0,-0.63 -0.512,-1.142 -1.142,-1.142" /><path
         inkscape:connector-curvature="0"
         id="path106"
         style="fill:#6cc1ca;fill-opacity:1;fill-rule:nonzero;stroke:none;stroke-width:0.1"
         d="m 534.441,144.523 h -9.059 v 1.227 h 9.059 v -1.227" /><path
         inkscape:connector-curvature="0"
         id="path108"
         style="fill:#6cc1ca;fill-opacity:1;fill-rule:nonzero;stroke:none;stroke-width:0.1"
         d="m 541.529,138.035 h -58.217 v 2.455 h 58.217 v -2.455" /><path
         inkscape:connector-curvature="0"
         id="path110"
         style="fill:#6cc1ca;fill-opacity:1;fill-rule:nonzero;stroke:none;stroke-width:0.1"
         d="m 487.463,106.822 h -2.104 v 31.213 h 2.104 v -31.213" /><path
         inkscape:connector-curvature="0"
         id="path112"
         style="fill:#6cc1ca;fill-opacity:1;fill-rule:nonzero;stroke:none;stroke-width:0.1"
         d="m 539.368,106.822 h -2.105 v 31.213 h 2.105 v -31.213" /><path
         inkscape:connector-curvature="0"
         id="path114"
         style="fill:#6cc1ca;fill-opacity:1;fill-rule:nonzero;stroke:none;stroke-width:0.1"
         d="m 541.529,103.25 h -58.217 v 3.572 h 58.217 v -3.572" /><path
         inkscape:connector-curvature="0"
         id="path116"
         style="fill:#425fb5;fill-opacity:1;fill-rule:nonzero;stroke:none;stroke-width:0.1"
         d="m 477.611,202.009 4.835,0.658 c -0.189,0.6 -0.41,1.278 -0.684,2.093 -1.288,3.771 -4.677,7.482 -5.392,7.393 -0.704,-0.083 -1.455,-2.064 -0.561,-4.018 0.974,-2.087 1.907,-4.8 1.806,-6.018 l -0.004,-0.108" /><path
         inkscape:connector-curvature="0"
         id="path118"
         style="fill:#d3f0ec;fill-opacity:1;fill-rule:nonzero;stroke:none;stroke-width:0.1"
         d="m 473.846,221.461 -21.954,-47.708 c -1.332,-2.895 -0.065,-6.321 2.829,-7.653 2.895,-1.332 6.321,-0.065 7.653,2.829 l 21.955,47.708 -10.483,4.824" /><path
         inkscape:connector-curvature="0"
         id="path120"
         style="fill:#f7961b;fill-opacity:1;fill-rule:nonzero;stroke:none;stroke-width:0.1"
         d="m 471.646,192.678 -10.405,-22.609 c -0.983,-2.136 -3.514,-3.063 -5.65,-2.08 -2.136,0.983 -3.079,3.509 -2.096,5.644 l 10.404,22.61 7.747,-3.565" /><path
         inkscape:connector-curvature="0"
         id="path122"
         style="fill:#d3f0ec;fill-opacity:1;fill-rule:nonzero;stroke:none;stroke-width:0.1"
         d="m 483.215,214.395 -10.549,4.854 c -0.994,0.458 -1.43,1.635 -0.972,2.63 0.458,0.994 1.635,1.429 2.629,0.972 l 10.55,-4.855 c 0.994,-0.458 1.429,-1.635 0.972,-2.629 -0.458,-0.995 -1.635,-1.43 -2.63,-0.972" /><path
         inkscape:connector-curvature="0"
         id="path124"
         style="fill:#bce8dd;fill-opacity:1;fill-rule:nonzero;stroke:none;stroke-width:0.1"
         d="m 482.745,213.196 -10.482,4.824 0.537,1.168 10.483,-4.824 -0.538,-1.168" /><path
         inkscape:connector-curvature="0"
         id="path126"
         style="fill:#425fb5;fill-opacity:1;fill-rule:nonzero;stroke:none;stroke-width:0.1"
         d="m 486.613,180.006 0.621,-0.402 -5.107,-4.007 c 0,0 -16.372,13.647 -18.17,16.726 -1.788,3.08 -3.041,8.741 -1.568,8.98 h 0.047 c -0.688,2.439 -0.841,4.724 0.096,4.868 l 0.124,-0.019 c -0.43,2.878 0.88,5.728 1.884,5.317 0.641,-0.258 0.995,-0.803 1.234,-1.521 0.21,1.846 0.899,3.596 1.76,3.615 1.377,0.058 1.262,-4.093 1.96,-5.393 1.664,-3.089 3.902,-6.532 5.069,-7.125 1.329,-0.679 2.897,-0.191 3.05,0.985 l 4.83,0.641 c 0.669,-2.181 0.861,-3.281 1.693,-5.882 2.075,-6.474 6.551,-13.159 6.551,-13.159 0,0 -1.846,-2.027 -4.074,-3.624" /><path
         inkscape:connector-curvature="0"
         id="path128"
         style="fill:#3b5eb4;fill-opacity:1;fill-rule:nonzero;stroke:none;stroke-width:0.1"
         d="m 522.276,245.404 c -0.707,1.237 -3.634,5.415 -5.836,8.027 -0.778,0.922 -5.251,2.175 -5.251,2.175 l -5.508,-2.713 -3.526,-7.591 c 0,0 -2.371,-4.842 -1.406,-5.918 0.586,-0.654 1.852,-0.4 2.879,-0.037 -0.238,-0.739 -0.632,-2.054 -0.547,-2.413 0.12,-0.508 0.867,-1.495 2.839,-1.059 0.838,0.185 1.375,1.388 1.375,1.388 l -3.127,2.292 c 0.58,0.241 0.995,0.467 0.995,0.467 l 8.601,-1.235 c 0,0 2.377,0.358 2.676,1.733 0.299,1.375 6.792,3.21 5.836,4.884" /><path
         inkscape:connector-curvature="0"
         id="path130"
         style="fill:#335ab1;fill-opacity:1;fill-rule:nonzero;stroke:none;stroke-width:0.1"
         d="m 506.327,242.596 2.787,3.478 0.014,0.017 0.013,0.007 2.039,1.098 -1.946,-1.256 0.027,0.024 -2.552,-3.655 -0.382,0.287" /><path
         inkscape:connector-curvature="0"
         id="path132"
         style="fill:#335ab1;fill-opacity:1;fill-rule:nonzero;stroke:none;stroke-width:0.1"
         d="m 507.323,240.224 2.788,3.478 0.013,0.017 0.014,0.007 2.039,1.099 -1.946,-1.257 0.027,0.024 -2.552,-3.655 -0.383,0.287" /><path
         inkscape:connector-curvature="0"
         id="path134"
         style="fill:#425fb5;fill-opacity:1;fill-rule:nonzero;stroke:none;stroke-width:0.1"
         d="m 513.82,241.719 c 0,0 -1.385,5.555 -1.684,6.332 -0.298,0.777 -4.961,2.152 -6.007,3.048 -0.956,-0.059 -2.181,-1.733 -4.99,-1.434 -0.565,0.06 -0.628,0.792 0.567,2.705 1.196,1.912 4.991,3.69 6.007,4.049 1.016,0.359 7.513,-1.248 8.589,-1.786 1.075,-0.537 10.478,-15.048 10.478,-15.048 l -12.96,2.134" /><path
         inkscape:connector-curvature="0"
         id="path136"
         style="fill:#d3f0ec;fill-opacity:1;fill-rule:nonzero;stroke:none;stroke-width:0.1"
         d="m 497.501,246.892 -13.45,-10.699 c -0.43,-0.342 -0.81,-0.752 -1.076,-1.233 -0.139,-0.251 -0.263,-0.54 -0.332,-0.85 -0.137,-0.614 -0.509,-1.151 -1.002,-1.543 l -2.216,-1.763 c -0.437,-0.348 -0.509,-0.984 -0.162,-1.421 0.348,-0.438 0.984,-0.51 1.422,-0.162 l 2.216,1.763 c 0.493,0.392 1.099,0.633 1.729,0.628 0.317,-0.002 0.627,0.054 0.902,0.133 0.529,0.151 1.014,0.429 1.444,0.771 l 13.45,10.7 -2.925,3.676" /><path
         inkscape:connector-curvature="0"
         id="path138"
         style="fill:#ee611c;fill-opacity:1;fill-rule:nonzero;stroke:none;stroke-width:0.1"
         d="m 493.108,238.007 -6.426,-5.116 c -0.421,-0.335 -0.851,-0.565 -1.282,-0.689 -0.268,-0.076 -0.516,-0.105 -0.765,-0.115 -0.727,0.048 -1.434,-0.248 -2.027,-0.726 l -2.219,-1.77 c -0.23,-0.181 -0.564,-0.143 -0.756,0.086 -0.181,0.23 -0.143,0.574 0.087,0.756 l 2.218,1.76 c 0.603,0.478 1.014,1.118 1.177,1.817 0.047,0.229 0.143,0.478 0.277,0.717 0.22,0.392 0.535,0.755 0.956,1.09 l 2.984,2.372 c 0.784,0.028 1.568,0.038 2.305,0.038 1.692,-0.01 2.668,-0.115 3.471,-0.22" /><path
         inkscape:connector-curvature="0"
         id="path140"
         style="fill:#ee611c;fill-opacity:1;fill-rule:nonzero;stroke:none;stroke-width:0.1"
         d="m 479.549,230.18 c 0,0 -1.433,-6.135 0.084,-6.328 1.61,-0.204 0.887,2.226 0.644,3.895 -0.244,1.669 0.273,1.973 0.273,1.973 l -1.001,0.46" /><path
         inkscape:connector-curvature="0"
         id="path142"
         style="fill:#4ac091;fill-opacity:1;fill-rule:nonzero;stroke:none;stroke-width:0.1"
         d="m 502.611,244.954 6.628,5.273 c 1.015,0.807 1.183,2.285 0.376,3.3 -0.808,1.016 -2.286,1.184 -3.301,0.376 l -6.628,-5.272 c -0.573,-0.456 -1.278,-0.666 -2.002,-0.776 -0.127,-0.019 -0.251,-0.071 -0.359,-0.157 -0.331,-0.263 -0.386,-0.745 -0.122,-1.077 l 2.892,-3.635 c 0.263,-0.331 0.745,-0.386 1.076,-0.122 0.108,0.086 0.186,0.195 0.234,0.314 0.27,0.681 0.633,1.32 1.206,1.776" /><path
         inkscape:connector-curvature="0"
         id="path144"
         style="fill:#425fb5;fill-opacity:1;fill-rule:nonzero;stroke:none;stroke-width:0.1"
         d="m 524.569,222.726 c 0,0 -5.818,5.262 -6.854,6.139 -1.036,0.876 -8.726,4.662 -11.795,7.01 -3.068,2.348 -6.296,12.196 -5.897,13.392 0.398,1.195 3.267,0.956 4.463,-1.754 1.195,-2.709 3.148,-4.742 4.662,-5.857 1.514,-1.116 9.045,1.235 11.755,1.235 2.709,0 14.544,-9.521 14.544,-9.521" /><path
         inkscape:connector-curvature="0"
         id="path146"
         style="fill:#e0f3f0;fill-opacity:1;fill-rule:nonzero;stroke:none;stroke-width:0.1"
         d="m 577.573,210.283 -44.486,25.834 c -0.822,0.477 -1.758,0.192 -2.493,-0.412 -3.814,-3.136 -6.386,-6.045 -8.222,-8.994 -1.119,-1.796 -0.894,-3.865 0.527,-5.431 l 22.404,-30.666" /><path
         inkscape:connector-curvature="0"
         id="path148"
         style="fill:#ea5b46;fill-opacity:1;fill-rule:nonzero;stroke:none;stroke-width:0.1"
         d="m 608.123,206.837 c 0,0 -12.659,-13.695 -27.304,-9.436 -6.663,1.967 -5.255,12.834 -5.255,12.834 0,0 3.019,0.116 4.421,2.098 0.299,0.407 0.854,1.985 1.461,3.925 1.153,3.854 2.547,9.122 2.547,9.122 l 5.304,1.618 16.533,5.055 c 0,0 -0.897,-14.884 0.23,-22.196 0.347,-2.243 2.063,-3.02 2.063,-3.02" /><path
         inkscape:connector-curvature="0"
         id="path150"
         style="fill:#ffffff;fill-opacity:1;fill-rule:nonzero;stroke:none;stroke-width:0.1"
         d="m 611.529,203.09 -37.55,6.95 c 0,0 7.77,1.75 15.91,2.98 7.18,1.08 14.65,1.76 17.34,0.47 3.33,-1.59 4.24,-4.85 4.43,-7.3 0.12,-1.76 -0.13,-3.1 -0.13,-3.1" /><path
         inkscape:connector-curvature="0"
         id="path152"
         style="fill:#e0f3f0;fill-opacity:1;fill-rule:nonzero;stroke:none;stroke-width:0.1"
         d="m 611.529,203.09 -37.55,6.95 c 0,0 7.77,1.75 15.91,2.98 4.55,-1.06 14.57,-3.58 21.77,-6.83 0.12,-1.76 -0.13,-3.1 -0.13,-3.1" /><path
         inkscape:connector-curvature="0"
         id="path154"
         style="fill:#ce5041;fill-opacity:1;fill-rule:nonzero;stroke:none;stroke-width:0.1"
         d="m 596.555,226.2 c 0,0 -1.585,-9.156 -15.109,-9.942 1.153,3.854 2.547,9.122 2.547,9.122 l 5.304,1.618 7.258,-0.798" /><path
         inkscape:connector-curvature="0"
         id="path156"
         style="fill:#ea5b46;fill-opacity:1;fill-rule:nonzero;stroke:none;stroke-width:0.1"
         d="m 590.28,275.92 c -2.947,-0.61 -13.1,5.24 -15.405,2.21 -1.885,-2.479 -6.196,-16.759 -8.476,-24.204 0,0 -4.851,-5.453 -5.25,-7.446 -0.398,-1.992 2.542,-3.027 2.542,-3.027 l 10e-4,0.001 c -1.084,-6.352 -1.671,-15.257 2.091,-19.146 5.998,-6.199 24.158,-2.117 26.265,-1.575 5.478,1.41 15.942,6.4 17.635,11.328 l 2.633,30.435 -22.036,11.424" /><path
         inkscape:connector-curvature="0"
         id="path158"
         style="fill:#141d33;fill-opacity:1;fill-rule:nonzero;stroke:none;stroke-width:0.1"
         d="m 570.324,297.099 c 2.948,1.838 10.609,4.582 16.04,-5.1 1.814,6.74 14.999,8.891 20.288,-2.371 11.136,6.707 28.092,-4.429 19.123,-19.732 10.1,-2.721 11.5,-11.333 10.867,-14.813 -0.923,-5.078 -4.302,-11.556 -13.919,-12.013 1.771,-7.3 -9.669,-12.814 -17.13,-16.356 l -1.888,3.068 c 0,0 6.681,8.757 3.484,14.911 -3.644,5.391 -8.478,-0.189 -11.272,-2.488 -0.393,-0.323 -0.985,-0.03 -0.966,0.478 0.107,2.859 1.178,4.395 -0.368,9.516 -1.765,5.848 1.82,10.277 2.718,11.493 0,0 -17.028,-0.14 -25.345,7.623 -8.316,7.761 -10.573,20.211 -1.632,25.784" /><path
         inkscape:connector-curvature="0"
         id="path160"
         style="fill:#ffffff;fill-opacity:1;fill-rule:nonzero;stroke:none;stroke-width:0.1"
         d="m 584.282,254.638 22.19,-9.558 0.301,0.697 -22.19,9.558" /><path
         inkscape:connector-curvature="0"
         id="path162"
         style="fill:#ea5b46;fill-opacity:1;fill-rule:nonzero;stroke:none;stroke-width:0.1"
         d="m 597.646,243.718 c 0,0 -1.036,-1.096 -1.622,-5.319 -0.585,-4.224 -0.383,-10.179 2.035,-11.01 2.419,-0.83 7.343,2.444 9.126,6.644 1.553,3.658 3.233,10.196 -1.412,12.6 -4.645,2.406 -8.127,-2.915 -8.127,-2.915" /><path
         inkscape:connector-curvature="0"
         id="path164"
         style="fill:#ce5041;fill-opacity:1;fill-rule:nonzero;stroke:none;stroke-width:0.1"
         d="m 602.441,243.322 c -2.029,-1.896 -3.294,-4.86 -2.667,-7.647 0.089,-0.396 0.715,-0.308 0.706,0.095 -0.058,2.729 0.489,5.046 2.466,7.048 0.324,0.328 -0.17,0.818 -0.505,0.504" /><path
         inkscape:connector-curvature="0"
         id="path166"
         style="fill:#ce5041;fill-opacity:1;fill-rule:nonzero;stroke:none;stroke-width:0.1"
         d="m 603.236,241.055 c -1.354,-0.104 -3.018,-1.004 -3.353,-2.437 -0.078,-0.333 0.374,-0.673 0.625,-0.364 0.383,0.472 0.678,0.984 1.174,1.356 0.482,0.363 1.064,0.6 1.653,0.721 0.403,0.082 0.318,0.757 -0.099,0.724" /><path
         inkscape:connector-curvature="0"
         id="path168"
         style="fill:#141d33;fill-opacity:1;fill-rule:nonzero;stroke:none;stroke-width:0.1"
         d="m 576.995,254.548 c -0.405,-1.309 -1.367,-2.175 -2.149,-1.933 -0.783,0.242 -1.088,1.5 -0.683,2.81 0.405,1.309 1.368,2.175 2.15,1.933 0.782,-0.242 1.088,-1.5 0.682,-2.81" /><path
         inkscape:connector-curvature="0"
         id="path170"
         style="fill:#141d33;fill-opacity:1;fill-rule:nonzero;stroke:none;stroke-width:0.1"
         d="m 580.75,257.276 c -0.461,1.791 -1.326,3.691 -3.188,4.382 -1.649,0.612 -3.338,-0.143 -4.428,-1.424 -0.39,-0.459 0.208,-1.068 0.664,-0.664 1.04,0.922 2.227,1.615 3.622,1.013 1.377,-0.594 2.167,-2.158 2.582,-3.513 0.146,-0.476 0.872,-0.28 0.748,0.206" /><path
         inkscape:connector-curvature="0"
         id="path172"
         style="fill:#141d33;fill-opacity:1;fill-rule:nonzero;stroke:none;stroke-width:0.1"
         d="m 625.439,269.338 c 4.748,1.415 9.257,7.988 8.174,12.923 -0.111,0.507 -0.988,0.406 -0.922,-0.125 0.546,-4.397 -3.105,-10.619 -7.458,-12.05 -0.471,-0.155 -0.275,-0.891 0.206,-0.748" /><path
         inkscape:connector-curvature="0"
         id="path174"
         style="fill:#141d33;fill-opacity:1;fill-rule:nonzero;stroke:none;stroke-width:0.1"
         d="m 606.966,288.693 c 0.863,7.286 -6.398,12.278 -13.013,11.02 -0.513,-0.097 -0.404,-0.982 0.124,-0.922 3.692,0.423 7.243,-0.253 9.702,-3.249 1.504,-1.833 2.641,-4.441 2.412,-6.849 -0.048,-0.5 0.717,-0.486 0.775,0" /><path
         inkscape:connector-curvature="0"
         id="path176"
         style="fill:#ffffff;fill-opacity:1;fill-rule:nonzero;stroke:none;stroke-width:0.1"
         d="m 570.305,259.031 -0.356,0.133 c -0.502,-1.353 -0.741,-2.726 -0.741,-4.04 -0.003,-3.479 1.685,-6.583 4.638,-7.683 0.722,-0.269 1.471,-0.397 2.219,-0.397 3.453,0.009 6.876,2.677 8.385,6.734 0.503,1.352 0.742,2.725 0.742,4.039 0.002,3.479 -1.686,6.583 -4.638,7.684 -0.723,0.268 -1.471,0.396 -2.219,0.396 -3.453,-0.008 -6.876,-2.677 -8.386,-6.733 l 0.356,-0.133 0.356,-0.132 c 1.414,3.816 4.628,6.247 7.674,6.239 0.662,0 1.318,-0.113 1.954,-0.349 2.58,-0.954 4.141,-3.72 4.143,-6.972 0,-1.222 -0.222,-2.506 -0.693,-3.775 -1.414,-3.816 -4.628,-6.247 -7.674,-6.238 -0.662,0 -1.319,0.112 -1.955,0.348 -2.579,0.954 -4.14,3.721 -4.143,6.972 0,1.222 0.222,2.506 0.694,3.775 l -0.356,0.132" /><path
         inkscape:connector-curvature="0"
         id="path178"
         style="fill:#ffffff;fill-opacity:1;fill-rule:nonzero;stroke:none;stroke-width:0.1"
         d="m 528.339,146.036 c -10.011,15.007 -31.764,34.866 -38.51,40.873 -1.248,1.111 -3.05,1.31 -4.508,0.494 -3.239,-1.813 -8.699,-5.266 -10.294,-8.719 -0.441,-0.954 -0.378,-2.055 0.081,-3 4.028,-8.277 26.384,-62.389 42.797,-61.167 4.413,0.329 23.607,8.814 10.434,31.519" /><path
         inkscape:connector-curvature="0"
         id="path180"
         style="fill:#ffffff;fill-opacity:1;fill-rule:nonzero;stroke:none;stroke-width:0.1"
         d="m 646.388,65.3602 h -113.24 c -0.201,7.182 0.296,25.8398 0.908,44.6128 0.249,7.632 0.526,15.292 0.775,22.197 0.459,12.738 0.861,22.942 0.956,25.773 0.086,2.745 0.125,5.336 0.115,7.794 0,0.105 0.01,0.22 0.01,0.335 1.233,39.19 36.13,43.79 39.401,44.144 0.162,0.01 0.248,0.019 0.248,0.019 2.41,0.106 5.098,0.211 8.043,-0.067 5.786,-0.545 14.651,-1.463 24.521,-3.328 4.351,-0.832 20.714,-7.363 25.18,-20.37 8.052,-23.487 13.427,-102.9778 13.083,-121.1098" /><path
         inkscape:connector-curvature="0"
         id="path182"
         style="fill:#e0f3f0;fill-opacity:1;fill-rule:nonzero;stroke:none;stroke-width:0.1"
         d="m 573.983,161.07 c 0,0 -14.498,-28.518 -39.927,-51.097 0.249,7.632 0.526,15.292 0.775,22.197 3.806,6.283 6.905,11.026 6.905,11.026 l 32.247,17.874" /><path
         inkscape:connector-curvature="0"
         id="path184"
         style="fill:#ffffff;fill-opacity:1;fill-rule:nonzero;stroke:none;stroke-width:0.1"
         d="m 584.812,185.833 c 0,0 0,-29.965 -61.25,-69.817 -13.897,-9.042 -20.975,16.091 -24.902,20.987 8.001,9.405 39.636,48.725 48.832,59.577 11.196,7.453 37.32,-10.747 37.32,-10.747" /><path
         inkscape:connector-curvature="0"
         id="path186"
         style="fill:#b8453c;fill-opacity:1;fill-rule:nonzero;stroke:none;stroke-width:0.1"
         d="m 563.705,234.515 c 0.026,-0.015 2.728,-1.977 6.265,-1.983 0.411,0 0.833,0.027 1.263,0.087 0.169,0.024 0.287,0.18 0.263,0.349 -0.023,0.169 -0.179,0.287 -0.348,0.263 -0.401,-0.056 -0.794,-0.081 -1.178,-0.081 -1.652,-0.001 -3.134,0.466 -4.2,0.936 -0.534,0.234 -0.963,0.469 -1.257,0.644 -0.147,0.087 -0.26,0.16 -0.336,0.21 l -0.111,0.076 c -0.138,0.099 -0.331,0.068 -0.431,-0.07 -0.1,-0.138 -0.068,-0.331 0.07,-0.431" /><path
         inkscape:connector-curvature="0"
         id="path188"
         style="fill:#f57789;fill-opacity:1;fill-rule:nonzero;stroke:none;stroke-width:0.1"
         d="m 348.243,199.139 c 8.84,-8.979 19.23,-8.184 19.23,-8.184 -0.241,3.591 2.07,9.339 4.414,14.148 2.325,4.757 4.702,8.626 4.702,8.626 l -0.747,3.47 -3.387,15.874 c 0,0 -9.97,11.999 -13.86,4.665 -3.872,-7.368 -10.352,-38.599 -10.352,-38.599" /><path
         inkscape:connector-curvature="0"
         id="path190"
         style="fill:#f1495f;fill-opacity:1;fill-rule:nonzero;stroke:none;stroke-width:0.1"
         d="m 360.989,226.839 c 0,0 0.442,-12.214 10.898,-21.736 2.325,4.757 4.702,8.626 4.702,8.626 l -0.747,3.47 -8.184,7.396 -6.669,2.244" /><path
         inkscape:connector-curvature="0"
         id="path192"
         style="fill:#f57789;fill-opacity:1;fill-rule:nonzero;stroke:none;stroke-width:0.1"
         d="m 360.558,260.983 c -6.681,-14.993 -1.446,-32.588 -1.446,-32.588 1.945,-7.275 6.416,-14.499 11.147,-19.275 l 0.042,-0.042 c 0.127,-0.127 0.228,-0.246 0.362,-0.347 0.144,-0.161 0.312,-0.33 0.522,-0.542 2.973,-2.804 5.973,-4.602 8.438,-4.812 7.26,-0.646 12.907,3.73 17.235,10.119 0.931,-0.449 2.147,-0.89 3.01,-0.663 1.584,0.417 2.155,10.339 2.155,10.339 l -0.035,-0.048 c 0.241,0.565 0.488,1.127 0.714,1.699 5.325,13.393 7.125,28.112 7.125,28.112 0.947,23.571 -42.597,23.015 -49.269,8.048" /><path
         inkscape:connector-curvature="0"
         id="path194"
         style="fill:#f57789;fill-opacity:1;fill-rule:nonzero;stroke:none;stroke-width:0.1"
         d="m 369.132,198.713 c 0,0 -2.083,-5.144 5.844,-9.821 6.423,-3.79 4.197,-9.836 4.197,-9.836 0,0 -7.295,-9.061 -30.951,1.439 0,0 -16.772,7.011 -17.398,21.309 0,0 12.336,-1.665 15.432,0.195 6.805,4.086 10.657,19.963 11.174,28.004" /><path
         inkscape:connector-curvature="0"
         id="path196"
         style="fill:#6cc1ca;fill-opacity:1;fill-rule:nonzero;stroke:none;stroke-width:0.1"
         d="m 419.729,199.661 -5.866,-3.614 c -0.504,-0.31 -1.163,-0.153 -1.474,0.35 l -9.885,16.046 c -0.31,0.504 -0.153,1.164 0.351,1.474 l 5.866,3.614 c 0.504,0.31 1.164,0.153 1.474,-0.35 l 9.885,-16.046 c 0.31,-0.504 0.153,-1.164 -0.351,-1.474" /><path
         inkscape:connector-curvature="0"
         id="path198"
         style="fill:#ffffff;fill-opacity:1;fill-rule:nonzero;stroke:none;stroke-width:0.1"
         d="m 410.244,217.153 -7.767,-4.795 c -0.373,-0.231 -0.863,-0.115 -1.093,0.258 -0.23,0.373 -0.114,0.863 0.259,1.093 l 7.767,4.795 c 0.374,0.231 0.863,0.115 1.093,-0.258 0.23,-0.374 0.115,-0.863 -0.259,-1.093" /><path
         inkscape:connector-curvature="0"
         id="path200"
         style="fill:#6cc1ca;fill-opacity:1;fill-rule:nonzero;stroke:none;stroke-width:0.1"
         d="m 441.813,161.512 -3.735,-2.301 c -0.321,-0.198 -0.741,-0.098 -0.938,0.223 l -6.294,10.215 c -0.197,0.321 -0.097,0.741 0.223,0.939 l 3.735,2.301 c 0.321,0.197 0.741,0.097 0.939,-0.223 l 6.293,-10.216 c 0.197,-0.321 0.098,-0.741 -0.223,-0.938" /><path
         inkscape:connector-curvature="0"
         id="path202"
         style="fill:#5fafb5;fill-opacity:1;fill-rule:nonzero;stroke:none;stroke-width:0.1"
         d="m 439.982,166.872 -5.866,-3.614 c -0.504,-0.31 -1.164,-0.153 -1.474,0.351 l -9.885,16.045 c -0.31,0.504 -0.153,1.164 0.351,1.474 l 5.866,3.614 c 0.503,0.31 1.163,0.153 1.474,-0.35 l 9.884,-16.046 c 0.311,-0.504 0.154,-1.164 -0.35,-1.474" /><path
         inkscape:connector-curvature="0"
         id="path204"
         style="fill:#61afb5;fill-opacity:1;fill-rule:nonzero;stroke:none;stroke-width:0.1"
         d="m 429.731,139.244 c -12.603,0 -22.822,8.417 -22.822,18.799 0,4.976 2.347,9.5 6.18,12.862 1.612,1.414 1.959,3.665 0.793,5.414 -1.573,2.358 -5.125,2.768 -7.247,0.811 -6.024,-5.555 -9.713,-13.27 -9.592,-21.78 0.238,-16.633 15.195,-30.044 33.199,-29.789 4.68,0.066 9.121,1.041 13.127,2.742 1.047,0.444 1.443,1.631 0.838,2.537 l -5.637,8.454 c -0.445,0.669 -1.314,0.984 -2.134,0.776 -2.12,-0.537 -4.372,-0.826 -6.705,-0.826" /><path
         inkscape:connector-curvature="0"
         id="path206"
         style="fill:#6cc1ca;fill-opacity:1;fill-rule:nonzero;stroke:none;stroke-width:0.1"
         d="m 429.731,136.489 c -12.603,0 -22.822,9.111 -22.822,20.349 0,5.386 2.347,10.283 6.18,13.923 1.612,1.53 1.959,3.967 0.793,5.86 -1.573,2.552 -5.125,2.996 -7.247,0.878 -6.024,-6.013 -9.713,-14.364 -9.592,-23.576 0.238,-18.004 15.195,-32.521 33.199,-32.245 4.68,0.071 9.121,1.126 13.127,2.967 1.047,0.481 1.443,1.766 0.838,2.747 l -5.637,9.151 c -0.445,0.724 -1.314,1.065 -2.134,0.84 -2.12,-0.581 -4.372,-0.894 -6.705,-0.894" /><path
         inkscape:connector-curvature="0"
         id="path208"
         style="fill:#5fafb5;fill-opacity:1;fill-rule:nonzero;stroke:none;stroke-width:0.1"
         d="m 427.079,172.909 -11.346,-3.905 c -1.532,-0.528 -3.225,0.078 -4.075,1.458 l -3.897,6.324 c -0.841,1.365 -0.635,3.129 0.498,4.264 l 8.538,8.549 10.282,-16.69" /><path
         inkscape:connector-curvature="0"
         id="path210"
         style="fill:#76d1d6;fill-opacity:1;fill-rule:nonzero;stroke:none;stroke-width:0.1"
         d="m 438.661,173.369 -9.722,-5.989 c -0.835,-0.515 -1.929,-0.255 -2.443,0.58 l -16.383,26.593 c -0.514,0.834 -0.254,1.928 0.581,2.443 l 9.722,5.989 c 0.835,0.514 1.929,0.254 2.443,-0.581 l 16.382,-26.592 c 0.514,-0.835 0.255,-1.929 -0.58,-2.443" /><path
         inkscape:connector-curvature="0"
         id="path212"
         style="fill:#6cc1ca;fill-opacity:1;fill-rule:nonzero;stroke:none;stroke-width:0.1"
         d="m 468.765,151.284 -24.553,-15.153 c -0.999,-0.616 -2.308,-0.306 -2.924,0.692 v 0 c -0.616,0.999 -0.306,2.308 0.692,2.924 l 24.554,15.153 c 0.998,0.616 2.307,0.306 2.923,-0.693 0.617,-0.998 0.307,-2.307 -0.692,-2.923" /><path
         inkscape:connector-curvature="0"
         id="path214"
         style="fill:#58a7ae;fill-opacity:1;fill-rule:nonzero;stroke:none;stroke-width:0.1"
         d="m 450.435,140.96 -11.799,-7.285 c -0.567,-0.349 -1.31,-0.174 -1.66,0.393 -0.349,0.567 -0.174,1.31 0.393,1.66 l 11.8,7.285 c 0.566,0.349 1.31,0.173 1.659,-0.393 0.35,-0.567 0.174,-1.31 -0.393,-1.66" /><path
         inkscape:connector-curvature="0"
         id="path216"
         style="fill:#ffffff;fill-opacity:1;fill-rule:nonzero;stroke:none;stroke-width:0.1"
         d="m 442.512,161.708 -4.955,-3.059 c -0.239,-0.147 -0.551,-0.073 -0.697,0.165 -0.147,0.238 -0.074,0.55 0.165,0.697 l 4.955,3.059 c 0.238,0.147 0.55,0.073 0.697,-0.165 0.147,-0.238 0.073,-0.55 -0.165,-0.697" /><path
         inkscape:connector-curvature="0"
         id="path218"
         style="fill:#58a7ae;fill-opacity:1;fill-rule:nonzero;stroke:none;stroke-width:0.1"
         d="m 454.983,133.424 -11.799,-7.284 c -0.567,-0.35 -1.31,-0.174 -1.66,0.393 -0.35,0.567 -0.174,1.31 0.393,1.66 l 11.799,7.284 c 0.567,0.35 1.31,0.174 1.66,-0.393 0.35,-0.567 0.174,-1.31 -0.393,-1.66" /><path
         inkscape:connector-curvature="0"
         id="path220"
         style="fill:#ffffff;fill-opacity:1;fill-rule:nonzero;stroke:none;stroke-width:0.1"
         d="m 460.464,135.55 -11.611,-7.165 c -0.162,-0.1 -0.375,-0.049 -0.475,0.113 l -2.641,4.28 c -0.1,0.162 -0.05,0.375 0.113,0.475 l 11.61,7.165 c 0.162,0.1 0.375,0.05 0.475,-0.112 l 2.641,-4.28 c 0.1,-0.163 0.05,-0.375 -0.112,-0.476" /><path
         inkscape:connector-curvature="0"
         id="path222"
         style="fill:#6cc1ca;fill-opacity:1;fill-rule:nonzero;stroke:none;stroke-width:0.1"
         d="m 463.33,134.62 -14.581,-8.998 c -0.203,-0.126 -0.47,-0.062 -0.596,0.141 l -3.317,5.375 c -0.126,0.204 -0.063,0.471 0.141,0.597 l 14.58,8.998 c 0.204,0.126 0.471,0.063 0.597,-0.141 l 3.317,-5.375 c 0.126,-0.204 0.063,-0.471 -0.141,-0.597" /><path
         inkscape:connector-curvature="0"
         id="path224"
         style="fill:#58a7ae;fill-opacity:1;fill-rule:nonzero;stroke:none;stroke-width:0.1"
         d="m 430.588,112.091 h -11.925 v 16.962 c 0,3.293 2.67,5.962 5.963,5.962 v 0 c 3.293,0 5.962,-2.669 5.962,-5.962 v -16.962" /><path
         inkscape:connector-curvature="0"
         id="path226"
         style="fill:#ffffff;fill-opacity:1;fill-rule:nonzero;stroke:none;stroke-width:0.1"
         d="m 429.115,129.053 c 0,-2.451 -1.987,-4.438 -4.438,-4.438 -2.451,0 -4.437,1.987 -4.437,4.438 0,2.451 1.986,4.437 4.437,4.437 2.451,0 4.438,-1.986 4.438,-4.437" /><path
         inkscape:connector-curvature="0"
         id="path228"
         style="fill:#6cc1ca;fill-opacity:1;fill-rule:nonzero;stroke:none;stroke-width:0.1"
         d="m 426.917,129.053 c 0,-1.237 -1.003,-2.24 -2.24,-2.24 -1.237,0 -2.24,1.003 -2.24,2.24 0,1.237 1.003,2.24 2.24,2.24 1.237,0 2.24,-1.003 2.24,-2.24" /><path
         inkscape:connector-curvature="0"
         id="path230"
         style="fill:#ffffff;fill-opacity:1;fill-rule:nonzero;stroke:none;stroke-width:0.1"
         d="m 417.921,176.405 c 0,-2.068 -1.676,-3.744 -3.744,-3.744 -2.067,0 -3.743,1.676 -3.743,3.744 0,2.067 1.676,3.743 3.743,3.743 2.068,0 3.744,-1.676 3.744,-3.743" /><path
         inkscape:connector-curvature="0"
         id="path232"
         style="fill:#61afb5;fill-opacity:1;fill-rule:nonzero;stroke:none;stroke-width:0.1"
         d="m 479.418,106.822 h -72.577 v 7.093 c 0,2.725 2.21,4.934 4.935,4.934 h 62.708 c 2.725,0 4.934,-2.209 4.934,-4.934 v -7.093" /><path
         inkscape:connector-curvature="0"
         id="path234"
         style="fill:#6cc1ca;fill-opacity:1;fill-rule:nonzero;stroke:none;stroke-width:0.1"
         d="m 478.631,103.25 h -71.002 c -0.435,0 -0.788,0.353 -0.788,0.788 v 6.305 c 0,2.725 2.21,4.935 4.935,4.935 h 62.708 c 2.725,0 4.934,-2.21 4.934,-4.935 v -6.305 c 0,-0.435 -0.352,-0.788 -0.787,-0.788" /><path
         inkscape:connector-curvature="0"
         id="path236"
         style="fill:#ffffff;fill-opacity:1;fill-rule:nonzero;stroke:none;stroke-width:0.1"
         d="m 391.718,151.63 c -0.41,-4.89 -1.45,-19.13 -2.52,-34.93 -0.36,-5.3 -0.73,-10.77 -1.07,-16.13 -1.25,-19.3501 -2.26,-32.9298 -1.98,-35.2098 h -109.28 c 0,0 34.31,137.5398 37.73,139.1298 6.68,1.83 57.52,13.18 65.46,-1.72 1.692,-4.083 2.779,-10.598 4.959,-17.588 3.76,-11.93 8.811,-21.522 6.701,-33.552" /><path
         inkscape:connector-curvature="0"
         id="path238"
         style="fill:#e0f3f0;fill-opacity:1;fill-rule:nonzero;stroke:none;stroke-width:0.1"
         d="m 389.198,116.7 c -0.36,-5.3 -0.73,-10.77 -1.07,-16.13 -3.58,1.28 -8.99,3.56 -14.01,7 -8.5,5.81 -22.02,41.63 -22.02,41.63 l 37.1,-32.5" /><path
         inkscape:connector-curvature="0"
         id="path240"
         style="fill:#425fb5;fill-opacity:1;fill-rule:nonzero;stroke:none;stroke-width:0.1"
         d="m 467.239,102.435 c -0.261,0.142 -2.514,1.194 -3.591,1.695 -1.048,0.796 -2.083,1.477 -2.775,1.698 -1.9,0.599 -7.91,2.87 -10.32,2.69 -2.4,-0.19 -5.46,-0.6 -7.49,0 -2.04,0.599 -4.42,1.77 -4.42,1.77 l -4.61,-8.481 c 0,0 5.72,-2.9691 9.42,-2.4691 2.651,0.3652 10.947,1.0371 19.572,-0.1508 1.866,-0.257 2.777,0.5359 3.016,1.0999 0.091,-0.019 0.179,-0.038 0.249,-0.053 0.656,-0.14 1.502,0.037 2.11,0.813 0.483,0.617 -0.817,1.201 -1.161,1.388" /><path
         inkscape:connector-curvature="0"
         id="path242"
         style="fill:#ffffff;fill-opacity:1;fill-rule:nonzero;stroke:none;stroke-width:0.1"
         d="m 442,109.973 -44.564,27.721 c -1.339,5.566 -8.018,33.155 -11.523,44.544 -1.58,5.1 -5.122,17.266 -5.122,17.266 l -46.319,3.87 c 0,0 0.08,-0.223 0.244,-0.643 0.512,-1.317 -2.736,-14.299 -0.658,-18.959 6.234,-14.032 31.533,-62.353 45.703,-72.666 4.941,-4.439 56.064,-15.7501 56.064,-15.7501 0,0 2.109,0.8043 4.269,5.9161 3.011,7.129 1.906,8.701 1.906,8.701" /><path
         inkscape:connector-curvature="0"
         id="path244"
         style="fill:#f03d5f;fill-opacity:1;fill-rule:nonzero;stroke:none;stroke-width:0.1"
         d="m 367.03,210.204 -2.358,0.386 0.129,0.064 0.026,0.002 c 0.486,-0.044 1.219,-0.177 2.203,-0.452" /><path
         inkscape:connector-curvature="0"
         id="path246"
         style="fill:#26356f;fill-opacity:1;fill-rule:nonzero;stroke:none;stroke-width:0.1"
         d="m 397.358,226.54 c -0.488,-1.249 -0.28,-2.497 0.467,-2.789 0.746,-0.291 1.746,0.484 2.234,1.734 0.488,1.248 0.279,2.498 -0.466,2.789 -0.746,0.291 -1.747,-0.485 -2.235,-1.734" /><path
         inkscape:connector-curvature="0"
         id="path248"
         style="fill:#26356f;fill-opacity:1;fill-rule:nonzero;stroke:none;stroke-width:0.1"
         d="m 395.693,230.574 c 1.163,0.795 2.708,1.515 4.149,1.139 1.462,-0.382 1.934,-1.716 2.167,-3.058 0.088,-0.512 0.919,-0.39 0.901,0.122 -0.055,1.608 -0.799,3.201 -2.384,3.795 -1.858,0.695 -3.75,-0.239 -5.215,-1.343 -0.381,-0.287 -0.028,-0.936 0.382,-0.655" /><path
         inkscape:connector-curvature="0"
         id="path250"
         style="fill:#26356f;fill-opacity:1;fill-rule:nonzero;stroke:none;stroke-width:0.1"
         d="m 427.216,253.96 c -0.912,8.406 -8.924,7.49 -14.037,9.038 -5.109,1.547 -12.065,6.732 -12.077,6.741 -2.576,2.324 -5.241,4.736 -7.427,6.371 -20.192,15.102 -26.248,-1.857 -26.248,-1.857 -10.198,-0.34 -15.521,-7.813 -18.827,-17.68 -1.639,-4.896 -4.624,-9.271 -8.857,-12.227 -3.149,-2.2 -6.94,-3.988 -11.328,-4.577 -16.036,-2.153 -15.538,-21.587 -24.235,-29.142 -0.11,-0.095 -0.209,-0.186 -0.297,-0.272 -16.27,-15.086 -11.039,-31.657 -6.724,-39.893 0.609,-1.796 1.675,-3.556 3.303,-5.256 18.499,-19.305 52.646,-19.595 54.678,-3.485 2.032,16.109 1.618,28.432 11.964,35.608 10.346,7.176 4.05,17.197 7.042,27.82 2.59,9.197 11.355,10.821 13.663,11.091 0.186,0.018 0.373,0.035 0.559,0.052 l 0.006,0.001 v 0 c 7.551,0.696 14.82,1.201 19.613,1.503 2.01,-0.179 3.88,-0.044 5.606,0.329 l 0.071,0.004 0.024,0.017 c 9.085,2.018 14.082,10.705 13.528,15.814" /><path
         inkscape:connector-curvature="0"
         id="path252"
         style="fill:#335ab1;fill-opacity:1;fill-rule:nonzero;stroke:none;stroke-width:0.1"
         d="m 450.702,104.396 c 0,0 0.913,-0.084 2.284,-0.209 1.369,-0.146 3.192,-0.353 5.007,-0.646 0.454,-0.08 0.908,-0.142 1.358,-0.274 0.431,-0.136 0.855,-0.269 1.265,-0.397 0.822,-0.252 1.583,-0.507 2.236,-0.725 1.306,-0.436 2.167,-0.757 2.167,-0.757 0,0 -0.893,0.214 -2.22,0.579 -0.663,0.182 -1.437,0.394 -2.26,0.643 -0.412,0.122 -0.838,0.247 -1.271,0.375 -0.42,0.112 -0.875,0.19 -1.322,0.272 -3.622,0.569 -7.244,1.139 -7.244,1.139" /><path
         inkscape:connector-curvature="0"
         id="path254"
         style="fill:#335ab1;fill-opacity:1;fill-rule:nonzero;stroke:none;stroke-width:0.1"
         d="m 451.181,106.781 c 0,0 0.8,-0.042 1.998,-0.138 0.598,-0.056 1.297,-0.115 2.043,-0.203 0.744,-0.092 1.55,-0.193 2.331,-0.411 3.104,-0.814 6.117,-1.909 6.117,-1.909 0,0 -0.777,0.194 -1.943,0.486 -1.159,0.31 -2.704,0.723 -4.249,1.137 -0.76,0.226 -1.546,0.338 -2.289,0.443 -0.742,0.107 -1.435,0.208 -2.029,0.294 -1.187,0.181 -1.979,0.301 -1.979,0.301" /><path
         inkscape:connector-curvature="0"
         id="path256"
         style="fill:#26356f;fill-opacity:1;fill-rule:nonzero;stroke:none;stroke-width:0.1"
         d="m 385.92,212.365 c 0.006,-0.006 0.795,-0.846 1.853,-1.744 1.065,-0.896 2.371,-1.86 3.533,-2.101 0.173,-0.034 0.341,0.078 0.375,0.251 0.035,0.173 -0.077,0.341 -0.25,0.375 -0.921,0.176 -2.223,1.088 -3.245,1.962 -0.514,0.436 -0.965,0.861 -1.288,1.176 -0.322,0.315 -0.511,0.518 -0.512,0.518 -0.121,0.129 -0.323,0.135 -0.451,0.014 -0.129,-0.121 -0.135,-0.323 -0.014,-0.451" /><path
         inkscape:connector-curvature="0"
         id="path258"
         style="fill:#afe0f4;fill-opacity:1;fill-rule:nonzero;stroke:none;stroke-width:0.1"
         d="m 440.971,217.69 h -0.5 c -0.003,-2.029 -1.645,-3.671 -3.675,-3.675 -2.029,0.004 -3.671,1.646 -3.674,3.675 0.003,2.03 1.645,3.671 3.674,3.675 2.03,-0.004 3.672,-1.645 3.675,-3.675 h 0.5 0.5 c 0,2.582 -2.093,4.675 -4.675,4.675 -2.582,0 -4.674,-2.093 -4.674,-4.675 0,-2.582 2.092,-4.674 4.674,-4.675 2.582,0.001 4.675,2.093 4.675,4.675 h -0.5" /><path
         inkscape:connector-curvature="0"
         id="path260"
         style="fill:#afe0f4;fill-opacity:1;fill-rule:nonzero;stroke:none;stroke-width:0.1"
         d="m 645.121,215.431 h -0.5 c -0.004,-2.029 -1.646,-3.671 -3.675,-3.675 -2.029,0.004 -3.671,1.646 -3.675,3.675 0.004,2.029 1.646,3.671 3.675,3.675 2.029,-0.004 3.671,-1.646 3.675,-3.675 h 0.5 0.5 c -10e-4,2.582 -2.093,4.674 -4.675,4.675 -2.582,-0.001 -4.675,-2.093 -4.675,-4.675 0,-2.582 2.093,-4.675 4.675,-4.675 2.582,0 4.674,2.093 4.675,4.675 h -0.5" /><path
         inkscape:connector-curvature="0"
         id="path262"
         style="fill:#afe0f4;fill-opacity:1;fill-rule:nonzero;stroke:none;stroke-width:0.1"
         d="m 523.411,273.63 7.72,-8.45 0.738,0.675 -7.72,8.45" /><path
         inkscape:connector-curvature="0"
         id="path264"
         style="fill:#afe0f4;fill-opacity:1;fill-rule:nonzero;stroke:none;stroke-width:0.1"
         d="m 526.78,280.366 h -0.5 c 0,-2.163 -0.875,-4.117 -2.292,-5.535 -1.418,-1.417 -3.372,-2.292 -5.535,-2.293 -2.163,10e-4 -4.117,0.876 -5.535,2.293 -1.417,1.418 -2.292,3.372 -2.293,5.535 10e-4,2.163 0.876,4.117 2.293,5.535 1.418,1.417 3.372,2.292 5.535,2.292 2.163,0 4.117,-0.875 5.535,-2.292 1.417,-1.418 2.292,-3.372 2.292,-5.535 h 0.5 0.5 c 0,4.875 -3.952,8.827 -8.827,8.827 -4.876,0 -8.827,-3.952 -8.828,-8.827 10e-4,-4.875 3.952,-8.827 8.828,-8.827 4.875,0 8.827,3.952 8.827,8.827 h -0.5" /><path
         inkscape:connector-curvature="0"
         id="path266"
         style="fill:#afe0f4;fill-opacity:1;fill-rule:nonzero;stroke:none;stroke-width:0.1"
         d="m 539.821,261.568 h -0.5 c -10e-4,-1.271 -0.514,-2.417 -1.347,-3.251 -0.833,-0.832 -1.979,-1.346 -3.25,-1.346 -1.271,0 -2.417,0.514 -3.251,1.346 -0.832,0.834 -1.346,1.98 -1.346,3.251 0,1.271 0.514,2.417 1.346,3.25 0.834,0.833 1.98,1.346 3.251,1.346 1.271,0 2.417,-0.513 3.25,-1.346 0.833,-0.833 1.346,-1.979 1.347,-3.25 h 0.5 0.5 c -10e-4,3.091 -2.506,5.596 -5.597,5.596 -3.091,0 -5.597,-2.505 -5.597,-5.596 0,-3.092 2.506,-5.597 5.597,-5.597 3.091,0 5.596,2.505 5.597,5.597 h -0.5" /><path
         inkscape:connector-curvature="0"
         id="path268"
         style="fill:#afe0f4;fill-opacity:1;fill-rule:nonzero;stroke:none;stroke-width:0.1"
         d="m 531.5,328.726 c 0,-2.606 -2.113,-4.719 -4.72,-4.719 -2.606,0 -4.719,2.113 -4.719,4.719 0,2.607 2.113,4.72 4.719,4.72 2.607,0 4.72,-2.113 4.72,-4.72" /><path
         inkscape:connector-curvature="0"
         id="path270"
         style="fill:#afe0f4;fill-opacity:1;fill-rule:nonzero;stroke:none;stroke-width:0.1"
         d="m 620.617,371.439 c 0,-2.606 -2.113,-4.719 -4.72,-4.719 -2.607,0 -4.72,2.113 -4.72,4.719 0,2.607 2.113,4.72 4.72,4.72 2.607,0 4.72,-2.113 4.72,-4.72" /><path
         inkscape:connector-curvature="0"
         id="path272"
         style="fill:#afe0f4;fill-opacity:1;fill-rule:nonzero;stroke:none;stroke-width:0.1"
         d="m 554.337,362 c 0,-2.607 -2.113,-4.72 -4.72,-4.72 -2.606,0 -4.719,2.113 -4.719,4.72 0,2.607 2.113,4.72 4.719,4.72 2.607,0 4.72,-2.113 4.72,-4.72" /><path
         inkscape:connector-curvature="0"
         id="path274"
         style="fill:#afe0f4;fill-opacity:1;fill-rule:nonzero;stroke:none;stroke-width:0.1"
         d="m 563.886,303.636 c 0,-1.532 -1.242,-2.774 -2.774,-2.774 -1.532,0 -2.774,1.242 -2.774,2.774 0,1.532 1.242,2.773 2.774,2.773 1.532,0 2.774,-1.241 2.774,-2.773" /><path
         inkscape:connector-curvature="0"
         id="path276"
         style="fill:#afe0f4;fill-opacity:1;fill-rule:nonzero;stroke:none;stroke-width:0.1"
         d="m 460.634,222.726 h -0.5 c -0.002,-1.256 -1.018,-2.272 -2.274,-2.274 -1.255,0.002 -2.271,1.018 -2.273,2.274 0.002,1.255 1.018,2.271 2.273,2.273 1.256,-0.002 2.272,-1.018 2.274,-2.273 h 0.5 0.5 c 0,1.808 -1.466,3.273 -3.274,3.273 -1.808,0 -3.273,-1.465 -3.273,-3.273 0,-1.809 1.465,-3.274 3.273,-3.274 1.808,0 3.274,1.465 3.274,3.274 h -0.5" /><path
         inkscape:connector-curvature="0"
         id="path278"
         style="fill:#afe0f4;fill-opacity:1;fill-rule:nonzero;stroke:none;stroke-width:0.1"
         d="m 435.755,283.974 c 0,-3.668 -2.973,-6.641 -6.64,-6.641 -3.668,0 -6.641,2.973 -6.641,6.641 0,3.667 2.973,6.64 6.641,6.64 3.667,0 6.64,-2.973 6.64,-6.64" /><path
         inkscape:connector-curvature="0"
         id="path280"
         style="fill:#afe0f4;fill-opacity:1;fill-rule:nonzero;stroke:none;stroke-width:0.1"
         d="m 522.438,187.902 c 0,-2.607 -2.113,-4.72 -4.72,-4.72 -2.606,0 -4.72,2.113 -4.72,4.72 0,2.606 2.114,4.719 4.72,4.719 2.607,0 4.72,-2.113 4.72,-4.719" /><path
         inkscape:connector-curvature="0"
         id="path282"
         style="fill:#46aaba;fill-opacity:1;fill-rule:nonzero;stroke:none;stroke-width:0.1"
         d="m 640,202.009 c 0,-1.783 -1.446,-3.229 -3.229,-3.229 -1.783,0 -3.229,1.446 -3.229,3.229 0,1.783 1.446,3.229 3.229,3.229 1.783,0 3.229,-1.446 3.229,-3.229" /><path
         inkscape:connector-curvature="0"
         id="path284"
         style="fill:#46aaba;fill-opacity:1;fill-rule:nonzero;stroke:none;stroke-width:0.1"
         d="m 498.919,288.607 c 0,-1.783 -1.446,-3.229 -3.229,-3.229 -1.784,0 -3.229,1.446 -3.229,3.229 0,1.784 1.445,3.229 3.229,3.229 1.783,0 3.229,-1.445 3.229,-3.229" /><path
         inkscape:connector-curvature="0"
         id="path286"
         style="fill:#46aaba;fill-opacity:1;fill-rule:nonzero;stroke:none;stroke-width:0.1"
         d="m 584.675,335.145 c 0,-1.784 -1.445,-3.229 -3.229,-3.229 -1.783,0 -3.228,1.445 -3.228,3.229 0,1.783 1.445,3.228 3.228,3.228 1.784,0 3.229,-1.445 3.229,-3.228" /><path
         inkscape:connector-curvature="0"
         id="path288"
         style="fill:#f7961b;fill-opacity:1;fill-rule:nonzero;stroke:none;stroke-width:0.1"
         d="m 292.791,167.116 c 0,-1.265 -1.025,-2.289 -2.289,-2.289 -1.264,0 -2.289,1.024 -2.289,2.289 0,1.264 1.025,2.289 2.289,2.289 1.264,0 2.289,-1.025 2.289,-2.289" /><path
         inkscape:connector-curvature="0"
         id="path290"
         style="fill:#f7961b;fill-opacity:1;fill-rule:nonzero;stroke:none;stroke-width:0.1"
         d="m 495.69,335.145 c 0,-2.842 -2.303,-5.145 -5.145,-5.145 -2.841,0 -5.144,2.303 -5.144,5.145 0,2.841 2.303,5.144 5.144,5.144 2.842,0 5.145,-2.303 5.145,-5.144" /><path
         inkscape:connector-curvature="0"
         id="path292"
         style="fill:#f7961b;fill-opacity:1;fill-rule:nonzero;stroke:none;stroke-width:0.1"
         d="m 611.767,322.531 c 0,-2.842 -2.303,-5.145 -5.144,-5.145 -2.842,0 -5.145,2.303 -5.145,5.145 0,2.841 2.303,5.144 5.145,5.144 2.841,0 5.144,-2.303 5.144,-5.144" /><path
         inkscape:connector-curvature="0"
         id="path294"
         style="fill:#afe0f4;fill-opacity:1;fill-rule:nonzero;stroke:none;stroke-width:0.1"
         d="m 645.121,181.92 c 0,-0.988 -0.801,-1.788 -1.788,-1.788 -0.987,0 -1.787,0.8 -1.787,1.788 0,0.987 0.8,1.787 1.787,1.787 0.987,0 1.788,-0.8 1.788,-1.787" /><path
         inkscape:connector-curvature="0"
         id="path296"
         style="fill:#afe0f4;fill-opacity:1;fill-rule:nonzero;stroke:none;stroke-width:0.1"
         d="m 625.336,327.25 c 0,-2.606 -2.113,-4.719 -4.719,-4.719 -2.607,0 -4.72,2.113 -4.72,4.719 0,2.607 2.113,4.72 4.72,4.72 2.606,0 4.719,-2.113 4.719,-4.72" /></g></g></svg>
